<!DOCTYPE svg PUBLIC "-//W3C//DTD SVG 1.1//EN" "http://www.w3.org/Graphics/SVG/1.1/DTD/svg11.dtd">
<!-- Uploaded to: SVG Repo, www.svgrepo.com, Transformed by: SVG Repo Mixer Tools -->
<svg width="800px" height="800px" viewBox="0 0 24.00 24.00" fill="none" xmlns="http://www.w3.org/2000/svg" stroke="#4b0877" stroke-width="0.36" transform="matrix(1, 0, 0, 1, 0, 0)">
<g id="SVGRepo_bgCarrier" stroke-width="0"/>
<g id="SVGRepo_tracerCarrier" stroke-linecap="round" stroke-linejoin="round" stroke="#CCCCCC" stroke-width="4.8"> <circle cx="12" cy="6" r="2" transform="rotate(90 12 6)" fill="#852ca5"/> <circle cx="12" cy="12" r="2" transform="rotate(90 12 12)" fill="#852ca5"/> <path d="M12 20C10.8954 20 10 19.1046 10 18C10 16.8954 10.8954 16 12 16C13.1046 16 14 16.8954 14 18C14 19.1046 13.1046 20 12 20Z" fill="#852ca5"/> </g>
<g id="SVGRepo_iconCarrier"> <circle cx="12" cy="6" r="2" transform="rotate(90 12 6)" fill="#852ca5"/> <circle cx="12" cy="12" r="2" transform="rotate(90 12 12)" fill="#852ca5"/> <path d="M12 20C10.8954 20 10 19.1046 10 18C10 16.8954 10.8954 16 12 16C13.1046 16 14 16.8954 14 18C14 19.1046 13.1046 20 12 20Z" fill="#852ca5"/> </g>
</svg>